<svg xmlns="http://www.w3.org/2000/svg" version="1.1" xmlns:xlink="http://www.w3.org/1999/xlink" width="1000" height="1000"><metadata><rdf:RDF xmlns:rdf="http://www.w3.org/1999/02/22-rdf-syntax-ns#" xmlns:dc="http://purl.org/dc/elements/1.1/"><rdf:Description><dc:creator>RealFaviconGenerator</dc:creator><dc:source>https://realfavicongenerator.net</dc:source></rdf:Description></rdf:RDF></metadata><g clip-path="url(#SvgjsClipPath1017)"><rect width="1000" height="1000" fill="#ffffff"></rect><g transform="matrix(4.444444444444445,0,0,4.444444444444445,100,100)"><svg xmlns="http://www.w3.org/2000/svg" id="Capa_1" data-name="Capa 1" viewBox="0 0 180 180" width="180" height="180"><defs><style>.cls-1{fill:#c53020;}.cls-2{fill:#fff;}</style><clipPath id="SvgjsClipPath1017"><rect width="1000" height="1000" x="0" y="0" rx="350" ry="350"></rect></clipPath></defs><title>Mesa de trabajo 1</title><path class="cls-1" d="M139.68,40a17.27,17.27,0,0,1-2.44-1.31c-6.13-4.61-13.18-5-20.33-4.15-5.61.68-11.13,2.15-16.73,2.8a8.27,8.27,0,0,1-5.79-1.67C86,28.25,75.9,25,65.15,23.28c-6.63-1-12.68,1-18.11,4.69A43.18,43.18,0,0,0,31.56,47,92,92,0,0,0,24.2,81.43,87.5,87.5,0,0,0,30.11,115c3.48,9.12,6.61,18.38,10.09,27.51,2.38,6.28,5.45,12.25,10.23,17.07,7.09,7.13,15.61,10.74,25.83,9.72,1.84-.18,3.69-.39,5.53-.39a8.83,8.83,0,0,1,3.29.63c11.53,4.82,22.35,2.93,32.44-3.79,5.11-3.41,8.86-8.27,12.33-13.31A139.83,139.83,0,0,0,142.67,130c1.91-4.28,3.14-8.85,4.71-13.28,1.35-3.81,2.8-7.6,4.13-11.42.79-2.25,1.44-4.54,2.1-6.81a4.78,4.78,0,0,0,.12-1.6c-.59-7.52-.87-15.09-1.91-22.57a171.36,171.36,0,0,0-4-17.94c-.6-2.36-1.73-4.58-1.22-7.13.56-2.81-.72-5.07-2.3-7.22a10.15,10.15,0,0,1-1.18-1.8,1.74,1.74,0,0,1,0-1.46,1.8,1.8,0,0,1,1.39-.49,13.89,13.89,0,0,1,11,6.54,52.59,52.59,0,0,1,8.26,22.46,19,19,0,0,1-.36,3.47c-.1,2.55-.62,5.23,0,7.63,1.08,4.52.49,8.89-.07,13.32a78.51,78.51,0,0,1-7.11,23.53c-3.42,7.34-6.8,14.69-10.51,21.9a156,156,0,0,1-9.16,15.93c-2.64,3.94-6,7.39-9.18,10.95A44.58,44.58,0,0,1,113,174.62a7.26,7.26,0,0,1-1.11.57c-6.8,2-13.67,4.08-20.87,3.32a31.32,31.32,0,0,1-8-2.37,8.4,8.4,0,0,0-5.55-.35,27.9,27.9,0,0,1-16.58-.36c-3.19-1.12-6.13-2.92-9.24-4.3s-5.5-3.9-7.69-6.51c-.27-.32-.5-.75-.85-.91-3.27-1.43-3.94-4.65-5-7.49-2.81-7.66-5.41-15.4-8.17-23.08-3.07-8.51-6.32-16.95-9.32-25.49a66.88,66.88,0,0,1-3.25-27.49A103.36,103.36,0,0,1,22,55.44C24.57,47.69,27.39,40,32.93,33.72c4.84-5.45,10.41-10,17.3-12.68a7.08,7.08,0,0,1,5.2-.36,5.94,5.94,0,0,0,2.65.17c8.31-1.08,16,1.37,23.42,4.56A56.81,56.81,0,0,1,95,34c2.45,2,5.19,1.56,8,1.05,4.87-.89,9.71-2,14.61-2.61a32.31,32.31,0,0,1,15.66,2c2.16.82,4,2.42,6,3.74.41.27.57.89.85,1.35Z"></path><path d="M57.26,96.17c.62.07.82,0,1,.11,5.48,3.47,10.34,7.48,12.51,13.94,1.79,5.38,4.8,6.56,9.65,3.61,4.12-2.51,6.86-6,6.74-11.21a7,7,0,0,0-.23-1.76c-.53-1.84-1.85-2.4-3.41-1.28a13.56,13.56,0,0,0-3.32,3.18,2.9,2.9,0,0,1-3.4,1.29A4.23,4.23,0,0,1,74.2,102a10.89,10.89,0,0,1-.49-4.74,3.55,3.55,0,0,1,1.82-2.15,8.94,8.94,0,0,0,4.62-5.21,5.17,5.17,0,0,0,.12-2.62c-.52-2.18-2.11-2.76-3.65-1.2a48.51,48.51,0,0,0-5.34,6.45c-2.14,3.13-2.61,3.22-4.82.1C65.38,91.1,64.2,89.71,63,88.24c0,0,0-.22.08-.26,4-2.07,8-4.2,12-6.15,2.72-1.31,5.58-1.26,7.88.83s2.58,4.74,2,7.6c0,.23-.11.46-.17.69-.72,2.85-.72,2.91,2.15,2.74,2.33-.13,3.6,1.25,4.73,3,.29.45.4,1.07.79,1.38a15.72,15.72,0,0,0,2.25,1.31,7.38,7.38,0,0,0,.81-2c.48-5.88,3.58-9.88,9-11.68s11.79.28,12.18,8c.33,6.4-2.68,11.35-8.13,14.73a4.76,4.76,0,0,1-2.38.68c-2.05,0-4.1-1.21-6.16.33-.36.28-1.62-.26-2.23-.72a7.83,7.83,0,0,1-3.22-5.17,12,12,0,0,0-.72-2l-.57.08c0,.72-.14,1.43-.14,2.15,0,6.75-2.07,12.71-7.16,17.29-3.13,2.81-6.78,4.52-11.14,3.06a11.44,11.44,0,0,1-8-8.85,41.64,41.64,0,0,0-4.37-12A39.31,39.31,0,0,0,59,98.47C58.46,97.82,58,97.16,57.26,96.17Zm53.32.81c0-3.33-2.46-5.32-5.37-4.26a7.72,7.72,0,0,0-4.4,8.17c.36,1.57.79,3.12,1.18,4.68.25,1,.8,1.34,1.84,1A11.08,11.08,0,0,0,110.58,97Z"></path><path class="cls-1" d="M97.57,33.13l1.32-4.44c1.94-6.52,4-13,7.67-18.8a68.91,68.91,0,0,1,4.44-6c1.46-1.82,6.65-2.22,8.15-.54a2.69,2.69,0,0,1-.28,2.44C117.15,8,115,10,113.44,12.38c-3,4.48-5.79,9.15-8.64,13.76-1.29,2.07-2.49,4.2-3.78,6.27A6.57,6.57,0,0,1,99.59,34c-.32.26-1,.49-1.24.33S97.8,33.51,97.57,33.13Z"></path><path d="M82.94,77.27c.63.49,1.29,1,1.9,1.47,3.42,2.91,9,3.31,12.07.72a23,23,0,0,0,2.27-2.93,7.71,7.71,0,0,1,2-1.91c1.38-.78,2.94-.93,4.12.34s.53,2.71-.25,3.94c-2.45,3.8-5.66,6.63-10.28,7.36a9.64,9.64,0,0,1-8.55-3.13A30,30,0,0,1,83,78.89a4.46,4.46,0,0,1-.39-1.37Z"></path><path d="M96.13,73.13c-.65,1-1.12,2.46-2,2.76A3.63,3.63,0,0,1,90.88,75a41.5,41.5,0,0,1-3.12-6.47c-.08-.2.4-.86.72-1C91.42,66.62,95.71,69.8,96.13,73.13Z"></path><path class="cls-2" d="M110.58,97a11.07,11.07,0,0,1-6.76,9.54c-1,.39-1.58.08-1.84-1-.38-1.56-.8-3.11-1.17-4.68a7.67,7.67,0,0,1,4.4-8.17C108.14,91.65,110.63,93.65,110.58,97Z"></path></svg></g></g></svg>