<svg id="Capa_1" data-name="Capa 1" xmlns="http://www.w3.org/2000/svg" viewBox="0 0 564.32 595.28"><defs><style>.cls-1{fill:#fff;}</style></defs><title>Mesa de trabajo 1</title><path class="cls-1" d="M420,157.39c-2.29-1.2-4.79-2.11-6.83-3.64-17.1-12.87-36.77-14-56.75-11.59-15.66,1.88-31.05,6-46.7,7.81-5.22.61-12.29-1.26-16.16-4.66-23.47-20.7-51.61-29.9-81.63-34.55-18.51-2.87-35.39,2.7-50.56,13.08-19.58,13.4-33.9,31.4-43.22,53.13-13.16,30.64-19.72,62.81-20.52,96.1a244,244,0,0,0,16.49,93.81c9.72,25.47,18.46,51.32,28.15,76.81,6.66,17.51,15.23,34.19,28.58,47.63,19.79,19.93,43.58,30,72.11,27.15,5.14-.51,10.3-1.09,15.44-1.09a24.27,24.27,0,0,1,9.16,1.76c32.21,13.45,62.4,8.19,90.58-10.59,14.26-9.5,24.73-23.09,34.42-37.14a391,391,0,0,0,35.79-62.75c5.32-11.93,8.75-24.7,13.13-37.05,3.79-10.66,7.84-21.22,11.55-31.9,2.19-6.27,4-12.67,5.85-19a12.65,12.65,0,0,0,.33-4.47c-1.64-21-2.42-42.13-5.33-63-2.37-16.9-7.08-33.5-11.27-50.09-1.67-6.59-4.82-12.78-3.41-19.89,1.56-7.87-2-14.17-6.41-20.18a26.78,26.78,0,0,1-3.3-5c-.52-1.2-.75-3.17-.1-4.08s2.59-1.48,3.9-1.37c13.15,1.09,23.08,7,30.65,18.24,12.87,19.13,19.86,40.18,23.06,62.7.45,3.12-.85,6.46-1,9.71-.28,7.12-1.75,14.58-.14,21.28,3,12.62,1.35,24.84-.2,37.19-2.88,23-10.09,44.78-19.85,65.7-9.56,20.48-19,41-29.33,61.13-7.8,15.21-16.07,30.3-25.58,44.47-7.37,11-16.79,20.63-25.62,30.58a125,125,0,0,1-39.81,29.6,22.78,22.78,0,0,1-3.1,1.6c-19,5.62-38.16,11.38-58.27,9.26-7.63-.81-15.19-3.74-22.42-6.6a23.56,23.56,0,0,0-15.5-1c-15.48,4.06-31.12,4.34-46.27-1-8.9-3.13-17.12-8.14-25.8-12-9-4-15.35-10.89-21.48-18.16-.75-.89-1.39-2.11-2.37-2.54-9.11-4-11-13-13.94-20.91-7.85-21.39-15.11-43-22.83-64.43-8.55-23.76-17.64-47.33-26-71.17-8.68-24.84-11.09-50.54-9.09-76.74,1.78-23.51,5.74-46.62,13.11-69,7.15-21.66,15-43.18,30.49-60.65,13.5-15.22,29.05-27.85,48.27-35.39,4.77-1.88,9.42-2.83,14.53-1a16.63,16.63,0,0,0,7.41.46c23.2-3,44.51,3.82,65.36,12.74,13.84,5.93,26.1,14.47,37.71,24,6.85,5.61,14.51,4.36,22.24,2.94,13.58-2.49,27.09-5.58,40.77-7.3a90.48,90.48,0,0,1,43.72,5.5c6.05,2.3,11.32,6.75,16.79,10.44,1.13.76,1.6,2.5,2.38,3.79Z"/><path class="cls-1" d="M189.92,314.23c1.72.19,2.28.09,2.64.32,15.31,9.67,28.88,20.86,34.92,38.91,5,15,13.4,18.31,26.94,10.07,11.5-7,19.15-16.9,18.82-31.28a19.45,19.45,0,0,0-.65-4.93c-1.47-5.12-5.15-6.7-9.5-3.58a38.12,38.12,0,0,0-9.29,8.88c-2.6,3.75-6.07,4.64-9.48,3.61-2.79-.85-6.18-3.3-7.11-5.84a30.31,30.31,0,0,1-1.37-13.23c.22-2.19,2.86-4.79,5.07-6,6.14-3.36,10.81-7.85,12.9-14.55a14.36,14.36,0,0,0,.33-7.3c-1.46-6.08-5.88-7.72-10.18-3.36a134.09,134.09,0,0,0-14.9,18c-6,8.76-7.29,9-13.47.3-3-4.16-6.31-8.05-9.55-12.16,0-.13,0-.62.24-.72,11.16-5.77,22.22-11.74,33.54-17.17,7.6-3.65,15.57-3.52,22,2.33,6.18,5.59,7.21,13.21,5.5,21.2-.14.65-.31,1.3-.47,1.94-2,7.94-2,8.11,6,7.65,6.49-.37,10.06,3.49,13.19,8.22.82,1.25,1.14,3,2.22,3.86a44.58,44.58,0,0,0,6.27,3.64c.78-1.85,2.11-3.65,2.27-5.56,1.33-16.42,10-27.58,25.25-32.62,15-4.95,32.9.78,34,22.31.92,17.86-7.49,31.69-22.72,41.12a13.13,13.13,0,0,1-6.62,1.9c-5.73,0-11.46-3.37-17.21.92-1,.77-4.51-.74-6.22-2-4.75-3.61-8.08-8.29-9-14.45a33.76,33.76,0,0,0-2-5.7l-1.58.24c-.14,2-.4,4-.4,6-.08,18.83-5.78,35.47-20,48.27-8.73,7.85-18.91,12.61-31.1,8.54-12-4-20-12.64-22.42-24.71a115.16,115.16,0,0,0-12.19-33.58C202,329,198,325,194.65,320.64,193.25,318.83,191.92,317,189.92,314.23Zm148.85,2.26c.14-9.3-6.89-14.86-15-11.89s-14.29,14.27-12.28,22.81c1,4.37,2.21,8.7,3.28,13.06.71,2.89,2.23,3.75,5.14,2.66C330.21,339.24,338.61,327.48,338.77,316.49Z"/><path class="cls-1" d="M302.45,138.26l3.67-12.42c5.42-18.2,11.08-36.33,21.43-52.48A193.94,193.94,0,0,1,339.92,56.5C344,51.43,358.5,50.31,362.68,55c1.05,1.16.45,5.16-.79,6.81-4.78,6.36-10.72,11.91-15.15,18.5-8.43,12.53-16.17,25.55-24.12,38.41-3.59,5.8-6.94,11.74-10.55,17.52a18.26,18.26,0,0,1-4,4.43c-.89.72-2.69,1.36-3.46.93C303.56,141,303.08,139.31,302.45,138.26Z"/><path class="cls-1" d="M261.6,261.47c1.77,1.36,3.6,2.65,5.3,4.1,9.56,8.13,25.1,9.25,33.69,2,2.58-2.17,4.12-5.52,6.34-8.16,1.64-2,3.32-4.13,5.48-5.34,3.84-2.17,8.2-2.59,11.51.94s1.47,7.59-.72,11c-6.82,10.61-15.79,18.52-28.68,20.56-9.42,1.49-17.39-2.23-23.89-8.73-3.48-3.48-6.17-7.78-9-11.84-.72-1-.74-2.54-1.08-3.84Z"/><path class="cls-1" d="M298.41,249.92c-1.81,2.7-3.11,6.85-5.56,7.69s-7.67-.44-9.08-2.54c-3.7-5.5-6-11.91-8.71-18.06-.23-.54,1.1-2.39,2-2.68C285.26,231.73,297.24,240.61,298.41,249.92Z"/><path class="cls-1" d="M338.77,316.49c-.16,11-8.56,22.75-18.87,26.64-2.91,1.09-4.43.23-5.14-2.66-1.07-4.36-2.25-8.69-3.28-13.06-2-8.54,4.09-19.82,12.28-22.81S338.91,307.19,338.77,316.49Z"/></svg>