<svg id="Capa_1" data-name="Capa 1" xmlns="http://www.w3.org/2000/svg" viewBox="0 0 180 180"><defs><style>.cls-1{fill:#fff;}.cls-2{fill:#c53020;}</style></defs><title>Mesa de trabajo 1</title><rect class="cls-1" width="180" height="180"/><path class="cls-2" d="M130.25,49.66a14.93,14.93,0,0,1-2-1c-5-3.73-10.64-4.06-16.43-3.36-4.53.54-9,1.74-13.52,2.26a6.65,6.65,0,0,1-4.68-1.35c-6.8-6-14.94-8.66-23.64-10-5.36-.83-10.24.78-14.64,3.79A35,35,0,0,0,42.85,55.33a74.4,74.4,0,0,0-5.94,27.83,70.6,70.6,0,0,0,4.77,27.16c2.82,7.37,5.35,14.86,8.15,22.24,1.93,5.07,4.41,9.9,8.28,13.79,5.73,5.77,12.62,8.69,20.88,7.86,1.49-.14,3-.31,4.47-.31a6.87,6.87,0,0,1,2.65.51c9.33,3.89,18.07,2.37,26.23-3.07,4.13-2.75,7.16-6.68,10-10.75a114.49,114.49,0,0,0,10.36-18.17c1.54-3.46,2.53-7.15,3.8-10.73,1.1-3.09,2.27-6.15,3.34-9.24.64-1.81,1.16-3.67,1.7-5.5a3.51,3.51,0,0,0,.09-1.29c-.47-6.08-.7-12.2-1.54-18.25a139.79,139.79,0,0,0-3.26-14.5c-.49-1.91-1.4-3.7-1-5.76.45-2.28-.58-4.1-1.86-5.84a7.71,7.71,0,0,1-.95-1.45,1.43,1.43,0,0,1,0-1.18,1.48,1.48,0,0,1,1.13-.4A11.24,11.24,0,0,1,143,53.56a42.63,42.63,0,0,1,6.68,18.16,16.15,16.15,0,0,1-.29,2.81c-.08,2.06-.51,4.22,0,6.16.87,3.66.39,7.19-.06,10.77a63.6,63.6,0,0,1-5.74,19c-2.77,5.93-5.51,11.88-8.5,17.71a128,128,0,0,1-7.4,12.87,86.81,86.81,0,0,1-7.42,8.86,36.3,36.3,0,0,1-11.53,8.57,7.62,7.62,0,0,1-.9.46c-5.5,1.63-11,3.3-16.87,2.68a25.15,25.15,0,0,1-6.49-1.91,6.86,6.86,0,0,0-4.49-.29,22.44,22.44,0,0,1-13.4-.29c-2.57-.9-4.95-2.36-7.47-3.47a18,18,0,0,1-6.22-5.26c-.22-.26-.4-.61-.68-.74-2.64-1.16-3.19-3.76-4-6-2.27-6.2-4.38-12.45-6.61-18.66-2.48-6.88-5.11-13.7-7.53-20.61a54.15,54.15,0,0,1-2.63-22.22,83.79,83.79,0,0,1,3.79-20c2.07-6.27,4.35-12.5,8.83-17.56a36.63,36.63,0,0,1,14-10.24,5.68,5.68,0,0,1,4.21-.29,4.84,4.84,0,0,0,2.14.13c6.72-.87,12.89,1.11,18.93,3.69a45.77,45.77,0,0,1,10.92,6.95c2,1.62,4.2,1.26,6.44.85,3.93-.72,7.84-1.62,11.8-2.11A26,26,0,0,1,125,45.16a25,25,0,0,1,4.86,3c.33.22.47.72.69,1.1Z"/><path d="M63.63,95.07c.5.06.66,0,.76.1,4.44,2.8,8.37,6,10.12,11.26,1.44,4.35,3.88,5.31,7.8,2.92,3.33-2,5.54-4.89,5.45-9.06a6.31,6.31,0,0,0-.19-1.43c-.43-1.48-1.49-1.94-2.75-1a11,11,0,0,0-2.69,2.57,2.34,2.34,0,0,1-2.75,1,3.38,3.38,0,0,1-2.06-1.69,8.73,8.73,0,0,1-.39-3.83,2.85,2.85,0,0,1,1.46-1.73A7.29,7.29,0,0,0,82.13,90a4.08,4.08,0,0,0,.09-2.11c-.42-1.76-1.7-2.24-2.94-1A38.55,38.55,0,0,0,75,92.1c-1.73,2.53-2.11,2.6-3.9.08-.87-1.2-1.82-2.33-2.76-3.52,0,0,0-.18.07-.2,3.23-1.68,6.43-3.4,9.71-5a5.46,5.46,0,0,1,6.37.68C86.24,85.78,86.54,88,86,90.3c0,.18-.09.37-.13.56-.58,2.3-.58,2.35,1.73,2.21,1.88-.1,2.92,1,3.82,2.38.24.37.33.87.64,1.12a14.38,14.38,0,0,0,1.82,1.06A6,6,0,0,0,94.58,96a10.1,10.1,0,0,1,7.31-9.45c4.34-1.43,9.53.23,9.84,6.46.27,5.17-2.17,9.18-6.58,11.91a3.78,3.78,0,0,1-1.91.55c-1.66,0-3.32-1-5,.26-.28.23-1.3-.21-1.8-.58a6.31,6.31,0,0,1-2.6-4.18,10.4,10.4,0,0,0-.58-1.65l-.46.07c0,.58-.11,1.16-.11,1.74,0,5.45-1.68,10.27-5.8,14-2.52,2.28-5.47,3.65-9,2.48a9.25,9.25,0,0,1-6.49-7.16,33.74,33.74,0,0,0-3.53-9.72A31.29,31.29,0,0,0,65,96.93C64.59,96.41,64.21,95.88,63.63,95.07Zm43.1.66c0-2.69-2-4.3-4.34-3.44a6.23,6.23,0,0,0-3.56,6.6c.29,1.27.64,2.52,1,3.78.21.84.65,1.09,1.49.77a9,9,0,0,0,5.46-7.71Z"/><path class="cls-2" d="M96.21,44.12l1.07-3.6c1.57-5.27,3.2-10.51,6.2-15.19a57.11,57.11,0,0,1,3.58-4.88c1.18-1.47,5.38-1.8,6.59-.44.31.34.13,1.5-.23,2-1.38,1.85-3.1,3.45-4.38,5.36-2.44,3.63-4.68,7.4-7,11.12-1,1.68-2,3.4-3,5.08a5.43,5.43,0,0,1-1.16,1.28,1.21,1.21,0,0,1-1,.27C96.53,44.91,96.4,44.43,96.21,44.12Z"/><path d="M84.39,79.8c.51.39,1,.76,1.53,1.18,2.77,2.36,7.27,2.68,9.75.58a16.71,16.71,0,0,0,1.84-2.36,6.31,6.31,0,0,1,1.59-1.55,2.56,2.56,0,0,1,3.33.28c1,1,.43,2.19-.21,3.18-2,3.07-4.57,5.36-8.3,6A7.81,7.81,0,0,1,87,84.54a25,25,0,0,1-2.61-3.43A3.78,3.78,0,0,1,84.08,80Z"/><path d="M95,76.45c-.52.78-.9,2-1.61,2.23a2.93,2.93,0,0,1-2.63-.74,33.2,33.2,0,0,1-2.52-5.23c-.06-.15.32-.69.58-.77C91.24,71.19,94.7,73.76,95,76.45Z"/><path class="cls-1" d="M106.73,95.73a9,9,0,0,1-5.46,7.71c-.85.32-1.29.07-1.49-.77-.31-1.26-.65-2.51-1-3.78a6.2,6.2,0,0,1,3.55-6.6C104.76,91.42,106.77,93,106.73,95.73Z"/></svg>