<svg id="Capa_1" data-name="Capa 1" xmlns="http://www.w3.org/2000/svg" viewBox="0 0 73.38 54.08"><title>Mesa de trabajo 1</title><g id="_1971_Email_Letter_Mail_Open" data-name="1971, Email, Letter, Mail, Open"><path d="M67.39,48.29V7a1.08,1.08,0,0,0-.3-.7l-.1-.1L66.89,6l-.1-.1c-.1-.1-.1,0-.1-.1s-.1,0-.1-.1,0,0-.1-.1h-.41C5,5.64,6.8,5.54,6.5,5.74a.1.1,0,0,0-.1.1l-.11.1-.1.1-.1.11-.1.1H6a1,1,0,0,0-.2.7h0c0,42.85,0,41.24.1,41.54v.1c0,.1,0,.1.1.1l.1.1h0A2,2,0,0,0,7,49.3H66.38C66.89,49.4,67.29,48.89,67.39,48.29ZM47.63,31.75a1.29,1.29,0,0,0-1.61,2L62.45,46.88H10.63L27.06,33.77A1.37,1.37,0,0,0,27.27,32a1.28,1.28,0,0,0-1.82-.21L8.31,45.47V9.67l24.3,19.06a6.51,6.51,0,0,0,8,0L64.77,9.67v35.8ZM10.73,8.36H62.35L39,26.71a3.79,3.79,0,0,1-4.74,0Z"/><rect x="24.95" y="41.73" width="2.52" height="2.52"/><rect x="30.09" y="41.73" width="2.52" height="2.52"/><rect x="35.23" y="41.73" width="2.52" height="2.52"/><rect x="40.37" y="41.73" width="2.52" height="2.52"/><rect x="45.51" y="41.73" width="2.52" height="2.52"/></g></svg>