<?xml version="1.0" encoding="UTF-8"?>
<svg id="Capa_1" data-name="Capa 1" xmlns="http://www.w3.org/2000/svg" viewBox="0 0 283.46 283.46">
  <defs>
    <style>
      .cls-1 {
        fill: #fff;
      }

      .cls-2 {
        fill: #111114;
      }
    </style>
  </defs>
  <path class="cls-2" d="M276.73,141.73c0,74.56-60.44,135-135,135h0c-74.56,0-135-60.44-135-135h0C6.73,67.17,67.17,6.73,141.73,6.73h0c74.56,0,135,60.44,135,135h0Z"/>
  <path class="cls-1" d="M181.73,131.26l-2.25,18.06c-.38,3.02-2.93,5.29-5.96,5.29h-29.25v75.51c-3.09.28-6.21.42-9.37.42-7.06,0-13.97-.71-20.63-2.05v-73.88h-22.5c-2.06,0-3.75-1.69-3.75-3.76v-22.6c0-2.07,1.69-3.76,3.75-3.76h22.5v-33.89c0-20.8,16.79-37.66,37.51-37.66h26.25c2.06,0,3.75,1.69,3.75,3.76v22.6c0,2.07-1.69,3.76-3.75,3.76h-18.75c-8.28,0-15,6.74-15,15.07v26.36h31.5c3.62,0,6.41,3.18,5.96,6.78Z"/>
</svg>