<?xml version="1.0" encoding="UTF-8"?>
<svg id="Capa_1" data-name="Capa 1" xmlns="http://www.w3.org/2000/svg" viewBox="0 0 283.46 283.46">
  <defs>
    <style>
      .cls-1 {
        fill: #fff;
      }

      .cls-2 {
        fill: #111114;
      }
    </style>
  </defs>
  <path class="cls-2" d="M276.73,141.73c0,74.56-60.44,135-135,135h0c-74.56,0-135-60.44-135-135h0C6.73,67.17,67.17,6.73,141.73,6.73h0c74.56,0,135,60.44,135,135h0Z"/>
  <path class="cls-1" d="M178.36,70.92h-73.25c-18.88,0-34.19,15.31-34.19,34.19v73.25c0,18.88,15.31,34.19,34.19,34.19h73.25c18.88,0,34.19-15.31,34.19-34.19v-73.25c0-18.88-15.31-34.19-34.19-34.19ZM200.34,175.92c0,13.48-10.94,24.42-24.42,24.42h-68.37c-13.48,0-24.42-10.94-24.42-24.42v-68.37c0-13.48,10.94-24.42,24.42-24.42h68.37c13.48,0,24.42,10.94,24.42,24.42v68.37Z"/>
  <path class="cls-1" d="M141.8,105.1c-20.22,0-36.63,16.41-36.63,36.63s16.41,36.63,36.63,36.63,36.63-16.41,36.63-36.63-16.41-36.63-36.63-36.63ZM141.8,166.15c-13.45,0-24.42-10.96-24.42-24.42s10.96-24.42,24.42-24.42,24.42,10.96,24.42,24.42-10.96,24.42-24.42,24.42Z"/>
  <circle class="cls-1" cx="180.87" cy="102.66" r="7.33"/>
</svg>