<svg id="Capa_1" data-name="Capa 1" xmlns="http://www.w3.org/2000/svg" viewBox="0 0 75 75"><defs><style>.cls-1{fill:#fff;}</style></defs><title>Mesa de trabajo 1 copia</title><g id="Instagram"><path class="cls-1" d="M37.69,30.33a7.17,7.17,0,1,0,7.17,7.17A7.17,7.17,0,0,0,37.69,30.33Z"/><path class="cls-1" d="M46.57,19.05H28.43a9.38,9.38,0,0,0-9.38,9.37V46.57A9.38,9.38,0,0,0,28.43,56H46.57A9.38,9.38,0,0,0,56,46.57V28.42A9.38,9.38,0,0,0,46.57,19.05ZM37.69,48.69A11.2,11.2,0,1,1,48.88,37.5,11.21,11.21,0,0,1,37.69,48.69ZM49.54,28.22a2.67,2.67,0,1,1,2.66-2.67A2.67,2.67,0,0,1,49.54,28.22Z"/><path class="cls-1" d="M37.5,0A37.5,37.5,0,1,0,75,37.5,37.5,37.5,0,0,0,37.5,0ZM60.23,46.57A13.68,13.68,0,0,1,46.57,60.23H28.43A13.68,13.68,0,0,1,14.77,46.57V28.42A13.67,13.67,0,0,1,28.43,14.77H46.57A13.67,13.67,0,0,1,60.23,28.42Z"/></g></svg>