<?xml version="1.0" encoding="UTF-8"?>
<svg id="Capa_1" data-name="Capa 1" xmlns="http://www.w3.org/2000/svg" viewBox="0 0 283.46 283.46">
  <defs>
    <style>
      .cls-1 {
        fill: #fff;
      }

      .cls-2 {
        fill: #111114;
      }
    </style>
  </defs>
  <path class="cls-2" d="M276.73,141.73c0,74.56-60.44,135-135,135h0c-74.56,0-135-60.44-135-135h0C6.73,67.17,67.17,6.73,141.73,6.73h0c74.56,0,135,60.44,135,135h0Z"/>
  <g>
    <circle class="cls-1" cx="93.92" cy="88.25" r="17.39"/>
    <rect class="cls-1" x="79.43" y="117.23" width="28.98" height="86.94" rx="1.3" ry="1.3"/>
    <path class="cls-1" d="M206.94,149.11v49.26c0,3.19-2.61,5.8-5.8,5.8h-17.39c-3.19,0-5.8-2.61-5.8-5.8v-40.57c0-8-6.49-14.49-14.49-14.49s-14.49,6.49-14.49,14.49v40.57c0,3.19-2.61,5.8-5.8,5.8h-17.39c-3.19,0-5.8-2.61-5.8-5.8v-75.35c0-3.19,2.61-5.8,5.8-5.8h17.39c3.19,0,5.8,2.61,5.8,5.8v3.71c5.8-7.51,15.39-12.4,26.08-12.4,16,0,31.88,11.59,31.88,34.78Z"/>
  </g>
</svg>