<svg id="Capa_1" data-name="Capa 1" xmlns="http://www.w3.org/2000/svg" viewBox="0 0 75 75"><defs><style>.cls-1{fill:#fff;}</style></defs><title>Mesa de trabajo 1 copia 3</title><path id="Linkedin" class="cls-1" d="M37.5,0A37.5,37.5,0,1,0,75,37.5,37.5,37.5,0,0,0,37.5,0ZM26.73,54.7H18.64v-26h8.09ZM22.68,25.15a4.69,4.69,0,1,1,4.69-4.69A4.69,4.69,0,0,1,22.68,25.15ZM57,54.7H48.93V42.06c0-3-.06-6.9-4.2-6.9s-4.85,3.29-4.85,6.68V54.7H31.8v-26h7.76v3.56h.1a8.5,8.5,0,0,1,7.66-4.21c8.18,0,9.69,5.39,9.69,12.39Z"/></svg>