<svg id="Capa_1" data-name="Capa 1" xmlns="http://www.w3.org/2000/svg" viewBox="0 0 86.09 86.09"><defs><style>.cls-1,.cls-2{fill:#fff;}.cls-1{fill-rule:evenodd;}</style></defs><title>Mesa de trabajo 1</title><path class="cls-1" d="M22.55,60.53l13.93,12.4c.64.59.94.94,1.88.94.29,0,.59-.35.89-.35a3.12,3.12,0,0,0,1.58-2.47V16.93a2.51,2.51,0,0,0-1.58-2.52,2.94,2.94,0,0,0-3.07.64L23.44,29H6.11a2.76,2.76,0,0,0-2.77,2.76V58.06a2.72,2.72,0,0,0,2.77,2.47Z"/><path class="cls-2" d="M79.3,48.79l-.25-.25-.14-.14-.23-.23-.37-.37-.37-.36-.36-.37-.37-.37-.37-.37L76.47,46l-.37-.37-.37-.37-.37-.36L75,44.49l-.37-.37-.37-.37-.37-.37L73.52,43l-.37-.37-.37-.36-.36-.37-.37-.37-.37-.37-.37-.37-.37-.37-.37-.37-.37-.37-.36-.36L69.47,39l-.37-.37-.37-.37-.37-.37L68,37.48l-.37-.37-.37-.36-.36-.37L66.52,36l-.37-.37-.37-.37-.37-.37L65,34.53l-.37-.36-.36-.37-.37-.37-.37-.37-.37-.37-.37-.37L62.46,32l-.37-.36-.36-.37-.3-.3-.07-.07-.17-.17a4.09,4.09,0,0,0-5.64.08l0,0,0,0a4.11,4.11,0,0,0,0,5.71l.11.11,0,0,.35.35.37.37.37.37.37.36.37.37.37.37.37.37.36.37.37.37.37.37.37.37.37.36.37.37.37.37.36.37.37.37.37.37.37.37.37.36.37.37.37.37.36.37.37.37.37.37.37.37.37.36.37.37.37.37.36.37.37.37.37.37.37.37.37.36.37.37.37.37.36.37.37.37.37.37.37.37.37.37.37.36.37.37.37.37.36.37.37.37.37.37.37.37.37.36h0A4.07,4.07,0,0,0,79,54.5l0,0,.09-.09.09-.09,0,0a4.06,4.06,0,0,0,1.1-2.78A4.11,4.11,0,0,0,79.3,48.79Z"/><path class="cls-2" d="M73.52,30.6l-.25.26-.14.14-.23.23-.37.36-.36.37-.37.37-.37.37-.37.37-.37.37-.37.37-.37.36-.37.37-.36.37-.37.37-.37.37-.37.37-.37.37-.37.36-.37.37-.36.37-.37.37-.37.37-.37.37-.37.37-.37.36-.37.37-.36.37-.37.37-.37.37-.37.37-.37.37-.37.36-.37.37-.36.37-.37.37-.37.37-.37.37-.37.37-.37.37-.37.36-.37.37-.36.37-.37.37-.37.37-.37.37-.37.37-.37.36-.37.37-.36.37-.3.3-.07.07-.17.16a4.1,4.1,0,0,0,.08,5.65l0,0,0,0a4.08,4.08,0,0,0,5.71,0l.11-.11h0l.35-.36.37-.37.37-.36.36-.37.37-.37.37-.37.37-.37.37-.37.37-.37.37-.36.36-.37.37-.37.37-.37.37-.37.37-.37.37-.37.37-.36.36-.37.37-.37.37-.37.37-.37.37-.37.37-.37.37-.36.36-.37.37-.37.37-.37.37-.37.37-.37.37-.37.37-.36.37-.37.36-.37.37-.37.37-.37.37-.37L75,40.7l.37-.37.37-.36.36-.37.37-.37.37-.37.37-.37.37-.37.37-.37.37-.36.36-.37.37-.37h0a4.07,4.07,0,0,0,1.26-3,4.11,4.11,0,0,0-1.09-2.78l0,0-.09-.09L79,30.71l0,0a4.07,4.07,0,0,0-5.47-.07Z"/></svg>