<svg id="Capa_1" data-name="Capa 1" xmlns="http://www.w3.org/2000/svg" viewBox="0 0 86.09 86.09"><defs><style>.cls-1{fill:#fff;fill-rule:evenodd;}</style></defs><title>Mesa de trabajo 1</title><path class="cls-1" d="M56.63,42.9a29.68,29.68,0,0,1-2.47,11.46A2.29,2.29,0,0,1,52,55.89a1.12,1.12,0,0,1-.94-.3,2.51,2.51,0,0,1-1.53-3.11,25.31,25.31,0,0,0,1.82-9.58,25.6,25.6,0,0,0-1.82-9.63,2.49,2.49,0,0,1,1.53-3.06,2.18,2.18,0,0,1,3.11,1.24A30.85,30.85,0,0,1,56.63,42.9Zm12.69,0a42.5,42.5,0,0,1-5.58,21,3.17,3.17,0,0,1-2.17,1.23,2,2,0,0,1-1.24-.29,2.61,2.61,0,0,1-.94-3.41,38.71,38.71,0,0,0,5-18.57,38.59,38.59,0,0,0-5-18.57,2.5,2.5,0,0,1,4.35-2.46,42.35,42.35,0,0,1,5.58,21Zm12.74,0a54.35,54.35,0,0,1-9,30,2.37,2.37,0,0,1-2.17,1.23,3.07,3.07,0,0,1-1.58-.29,2.23,2.23,0,0,1-.59-3.41A49.57,49.57,0,0,0,77.07,42.9a48.72,48.72,0,0,0-8.34-27.55,2.29,2.29,0,0,1,.94-3.41,2.94,2.94,0,0,1,3.4.64,56.06,56.06,0,0,1,9,30.32ZM22.55,60.53l13.93,12.4c.64.59.94.94,1.88.94.29,0,.59-.35.89-.35a3.12,3.12,0,0,0,1.58-2.47V16.93a2.51,2.51,0,0,0-1.58-2.52,2.94,2.94,0,0,0-3.07.64L23.44,29H6.11a2.76,2.76,0,0,0-2.77,2.76V58.06a2.72,2.72,0,0,0,2.77,2.47Z"/></svg>