<svg xmlns="http://www.w3.org/2000/svg" viewBox="0 0 97.32 96.89"><defs><style>.cls-1{fill:#fff;fill-rule:evenodd;}</style></defs><title>Mesa de trabajo 1</title><g id="OBJECTS"><path class="cls-1" d="M92.94,46.52a43.8,43.8,0,0,1-64.87,38L3.85,92.21l7.9-23.28A42.88,42.88,0,0,1,5.47,46.52a43.74,43.74,0,0,1,87.47,0ZM49.21,10A36.66,36.66,0,0,0,12.44,46.52a36.11,36.11,0,0,0,7,21.39L14.85,81.46,29,77A36.58,36.58,0,1,0,49.21,10ZM71.29,56.52c-.27-.45-1-.71-2.05-1.25s-6.35-3.1-7.33-3.46-1.7-.53-2.41.53-2.77,3.47-3.4,4.18-1.25.79-2.32.26a29.34,29.34,0,0,1-8.62-5.28,32.33,32.33,0,0,1-6-7.36c-.62-1.06-.06-1.64.47-2.17s1.08-1.24,1.61-1.86a7.08,7.08,0,0,0,1.07-1.78,1.93,1.93,0,0,0-.09-1.86c-.26-.53-2.41-5.77-3.3-7.9s-1.79-2.05-2.41-2.05a15.15,15.15,0,0,0-1.79.19A6.12,6.12,0,0,0,31.62,28a11.89,11.89,0,0,0-3.75,8.87c0,5.23,3.84,10.29,4.38,11S39.66,59.71,50.56,64s10.9,2.84,12.87,2.66,6.34-2.57,7.23-5.06.9-4.61.63-5Zm0,0"/></g></svg>