<?xml version="1.0" encoding="UTF-8"?>
<svg id="Layer_1" data-name="Layer 1" xmlns="http://www.w3.org/2000/svg" viewBox="0 0 316.93 316.93">
  <defs>
    <style>
      .cls-1 {
        fill: #fff;
      }

      .cls-2 {
        fill: none;
        stroke: #fff;
        stroke-linecap: round;
        stroke-linejoin: round;
        stroke-width: 21.18px;
      }
    </style>
  </defs>
  <path class="cls-1" d="M139.28,90.82l5.14,28.08c.54,2.95-.33,5.98-2.34,8.21-4.03,4.45-8.02,7.57-11.99,9.87-1.77,1.02-2.63,3.11-2.06,5.07,6.22,21.49,18.02,39.6,37.67,52.96.88.6,1.99.72,3,.38,5.05-1.71,10.9-6.05,17.11-11.55,1.53-1.36,3.83-1.41,5.44-.14l26.52,20.91c1.45,1.15,2.07,3.08,1.49,4.84-.1.3-.2.6-.3.89-4.13,11.99-14.82,20.62-27.45,21.78-.59.05-1.18.1-1.77.13-9.69.5-19.22-2.5-27.2-8.01-33.19-22.9-60.65-62.97-64.96-98.99-1.06-8.89.53-17.98,5.07-25.7,2.96-5.04,6.8-9.08,11.45-12.19,6.28-4.19,14.33-5.04,21.14-1.79.05.03.11.05.16.08,2.05.99,3.47,2.94,3.88,5.18Z"/>
  <path class="cls-2" d="M91.39,268.04l-59.38,21.82,17.66-63.23c-12.31-19.69-19.43-42.96-19.43-67.89,0-70.82,57.41-128.23,128.23-128.23s128.23,57.41,128.23,128.23-57.41,128.23-128.23,128.23c-24.59,0-47.56-6.92-67.08-18.92Z"/>
</svg>