<svg xmlns="http://www.w3.org/2000/svg" viewBox="0 0 363.17 96.89"><defs><style>.cls-1,.cls-2{fill:#fff;}.cls-2{fill-rule:evenodd;}</style></defs><title>Mesa de trabajo 1</title><g id="OBJECTS"><g id="WA_Logotype" data-name="WA Logotype"><path class="cls-1" d="M147.55,50.44h-.11L141,24.28h-7.82l-6.59,25.84h-.11l-6-25.84h-8.35l10,38h8.45l6.33-25.84h.1l6.43,25.84h8.3l10.2-38h-8.18Zm39.86-13.32a7.39,7.39,0,0,0-3-2.29,13,13,0,0,0-5-.82A9.85,9.85,0,0,0,175,35.1a8.77,8.77,0,0,0-3.67,3.49h-.16V24.28h-7.55v38h7.55V47.83c0-2.79.46-4.81,1.38-6A5.24,5.24,0,0,1,177.05,40c1.81,0,3.06.55,3.77,1.67a9.63,9.63,0,0,1,1.07,5.08V62.24h7.54V45.34a22.4,22.4,0,0,0-.45-4.66A8.78,8.78,0,0,0,187.41,37.12Zm31.1,19V41.83a6.58,6.58,0,0,0-1.12-4,7.57,7.57,0,0,0-2.86-2.36,13,13,0,0,0-3.89-1.15,31.43,31.43,0,0,0-4.2-.29,23.14,23.14,0,0,0-4.54.45A13,13,0,0,0,197.83,36a9,9,0,0,0-3,2.82,8.7,8.7,0,0,0-1.33,4.41h7.54a4.28,4.28,0,0,1,1.5-3.19,5.68,5.68,0,0,1,3.5-1,12.42,12.42,0,0,1,1.89.14,4,4,0,0,1,1.54.53,2.84,2.84,0,0,1,1.06,1.11,4,4,0,0,1,.4,1.94,2,2,0,0,1-.69,1.79,5.05,5.05,0,0,1-2,.92,18.33,18.33,0,0,1-2.92.48c-1.1.11-2.22.26-3.35.43a32,32,0,0,0-3.37.72,9.44,9.44,0,0,0-3,1.35,7,7,0,0,0-2.13,2.42,8,8,0,0,0-.82,3.86,8.77,8.77,0,0,0,.71,3.67,7,7,0,0,0,2,2.55,8.47,8.47,0,0,0,3,1.49,13.51,13.51,0,0,0,3.67.48,17,17,0,0,0,5-.75,9.83,9.83,0,0,0,4.25-2.6,11.86,11.86,0,0,0,.19,1.35,10.76,10.76,0,0,0,.34,1.3h7.66a6.24,6.24,0,0,1-.75-2.55A29,29,0,0,1,218.51,56.13ZM211,51.61a14,14,0,0,1-.13,1.7,5.71,5.71,0,0,1-.72,2.1,5,5,0,0,1-1.8,1.78,6.66,6.66,0,0,1-3.46.75,9.11,9.11,0,0,1-1.75-.16,4.2,4.2,0,0,1-1.49-.56,2.79,2.79,0,0,1-1-1.09,3.53,3.53,0,0,1-.38-1.7,3.67,3.67,0,0,1,.38-1.76,3.37,3.37,0,0,1,1-1.14,5.11,5.11,0,0,1,1.44-.72,15.1,15.1,0,0,1,1.67-.42c.6-.11,1.21-.2,1.81-.27s1.18-.16,1.72-.26a12.49,12.49,0,0,0,1.55-.4,3.27,3.27,0,0,0,1.19-.67Zm21.64-25.1h-7.55v8.24h-4.57v5.06h4.57V56a7,7,0,0,0,.69,3.35,4.92,4.92,0,0,0,1.89,2,7.82,7.82,0,0,0,2.76.93,22,22,0,0,0,3.32.24c.75,0,1.51,0,2.29,0a16.25,16.25,0,0,0,2.13-.22V56.39a9.72,9.72,0,0,1-1.12.17c-.39,0-.8,0-1.22,0a3.75,3.75,0,0,1-2.56-.64,3.71,3.71,0,0,1-.63-2.55V39.81h5.53V34.75H232.6ZM263.8,50.2a6.85,6.85,0,0,0-2-2.18A10.74,10.74,0,0,0,259,46.61a33.15,33.15,0,0,0-3.22-.9c-1.06-.25-2.1-.48-3.13-.69A25,25,0,0,1,250,44.3a5.74,5.74,0,0,1-1.94-1,2.28,2.28,0,0,1-.32-3,2.72,2.72,0,0,1,1-.77,4.78,4.78,0,0,1,1.35-.35c.5,0,1-.08,1.39-.08a7.63,7.63,0,0,1,3.51.77,3.3,3.3,0,0,1,1.64,3h7.18a9.06,9.06,0,0,0-1.3-4.22,8.58,8.58,0,0,0-2.74-2.69A11.47,11.47,0,0,0,256,34.44a21.27,21.27,0,0,0-4.33-.43,24.13,24.13,0,0,0-4.36.4,12.29,12.29,0,0,0-3.83,1.38,7.65,7.65,0,0,0-2.73,2.69,8.18,8.18,0,0,0-1,4.36,5.88,5.88,0,0,0,.75,3.06,6.46,6.46,0,0,0,2,2.07,11.25,11.25,0,0,0,2.79,1.33c1.05.34,2.12.63,3.22.88a44.06,44.06,0,0,1,6.3,1.7c1.5.56,2.26,1.42,2.26,2.55a2.77,2.77,0,0,1-.48,1.67,3.62,3.62,0,0,1-1.2,1.07,5.79,5.79,0,0,1-1.59.58,7.8,7.8,0,0,1-1.68.19,8.5,8.5,0,0,1-2.15-.27,5.45,5.45,0,0,1-1.83-.82,4.32,4.32,0,0,1-1.31-1.44,4.18,4.18,0,0,1-.5-2.1h-7.18a9.23,9.23,0,0,0,1.25,4.6,9,9,0,0,0,2.92,3,12.33,12.33,0,0,0,4.07,1.6,22.66,22.66,0,0,0,4.68.48,23.52,23.52,0,0,0,4.6-.45,12,12,0,0,0,4-1.57,8.3,8.3,0,0,0,3.93-7.5A6.47,6.47,0,0,0,263.8,50.2Zm15-25.92-14.35,38h8.4l3-8.45H290l2.86,8.45h8.67l-14.19-38ZM278,47.57l4.95-13.93h.1l4.79,13.93Zm49.65-9.09a11.58,11.58,0,0,0-3.88-3.25A12,12,0,0,0,318.18,34a10.83,10.83,0,0,0-4.68,1A8.37,8.37,0,0,0,310,38.26h-.1V34.75h-7.18V71.87h7.55v-13h.1a8.92,8.92,0,0,0,3.54,3.06,10.69,10.69,0,0,0,4.7,1,11,11,0,0,0,9.07-4.31,13.61,13.61,0,0,0,2.26-4.52,19.1,19.1,0,0,0,.74-5.32,21.16,21.16,0,0,0-.74-5.61A13.73,13.73,0,0,0,327.64,38.48Zm-4.83,13.34a7.91,7.91,0,0,1-1.1,2.79,5.69,5.69,0,0,1-5.13,2.69,5.78,5.78,0,0,1-5.13-2.69,8.32,8.32,0,0,1-1.11-2.79,15.24,15.24,0,0,1-.35-3.24,16.84,16.84,0,0,1,.32-3.29,8.56,8.56,0,0,1,1.09-2.83,6.3,6.3,0,0,1,2-2,5.85,5.85,0,0,1,3.11-.77,5.77,5.77,0,0,1,3.06.77,6.45,6.45,0,0,1,2,2,8.71,8.71,0,0,1,1.15,2.85,15.23,15.23,0,0,1,.34,3.24A16.63,16.63,0,0,1,322.81,51.82ZM360,43.18a13.54,13.54,0,0,0-2.28-4.7,11.58,11.58,0,0,0-3.88-3.25A12,12,0,0,0,348.26,34a10.75,10.75,0,0,0-4.67,1,8.31,8.31,0,0,0-3.51,3.24H340V34.75H332.8V71.87h7.54v-13h.11A8.85,8.85,0,0,0,344,61.9a10.69,10.69,0,0,0,4.7,1A11.36,11.36,0,0,0,354,61.77a11.07,11.07,0,0,0,3.77-3.14A13.25,13.25,0,0,0,360,54.11a18.74,18.74,0,0,0,.75-5.32A20.76,20.76,0,0,0,360,43.18Zm-7.12,8.64a7.9,7.9,0,0,1-1.09,2.79,6.12,6.12,0,0,1-10.26,0,8.33,8.33,0,0,1-1.12-2.79,15.23,15.23,0,0,1-.34-3.24,16.84,16.84,0,0,1,.32-3.29,8.35,8.35,0,0,1,1.09-2.83,6.3,6.3,0,0,1,2-2,5.85,5.85,0,0,1,3.11-.77,5.73,5.73,0,0,1,3.05.77,6.38,6.38,0,0,1,2.05,2,8.69,8.69,0,0,1,1.14,2.85,14.62,14.62,0,0,1,.35,3.24A16.63,16.63,0,0,1,352.89,51.82Z"/></g><path class="cls-2" d="M92.94,46.52a43.8,43.8,0,0,1-64.87,38L3.85,92.21l7.9-23.28A42.88,42.88,0,0,1,5.47,46.52a43.74,43.74,0,0,1,87.47,0ZM49.21,10A36.66,36.66,0,0,0,12.44,46.52a36.11,36.11,0,0,0,7,21.39L14.85,81.46,29,77A36.58,36.58,0,1,0,49.21,10ZM71.29,56.52c-.27-.45-1-.71-2.05-1.25s-6.35-3.1-7.33-3.46-1.7-.53-2.41.53-2.77,3.47-3.4,4.18-1.25.79-2.32.26a29.34,29.34,0,0,1-8.62-5.28,32.33,32.33,0,0,1-6-7.36c-.62-1.06-.06-1.64.47-2.17s1.08-1.24,1.61-1.86a7.08,7.08,0,0,0,1.07-1.78,1.93,1.93,0,0,0-.09-1.86c-.26-.53-2.41-5.77-3.3-7.9s-1.79-2.05-2.41-2.05a15.15,15.15,0,0,0-1.79.19A6.12,6.12,0,0,0,31.62,28a11.89,11.89,0,0,0-3.75,8.87c0,5.23,3.84,10.29,4.38,11S39.66,59.71,50.56,64s10.9,2.84,12.87,2.66,6.34-2.57,7.23-5.06.9-4.61.63-5Zm0,0"/></g></svg>