<?xml version="1.0" encoding="UTF-8"?>
<svg id="Capa_1" data-name="Capa 1" xmlns="http://www.w3.org/2000/svg" viewBox="0 0 283.46 283.46">
  <defs>
    <style>
      .cls-1 {
        fill: #fff;
      }

      .cls-2 {
        fill: #111114;
      }
    </style>
  </defs>
  <path class="cls-2" d="M276.73,141.73c0,74.56-60.44,135-135,135h0c-74.56,0-135-60.44-135-135h0C6.73,67.17,67.17,6.73,141.73,6.73h0c74.56,0,135,60.44,135,135h0Z"/>
  <path class="cls-1" d="M161.21,129.33l54.61-58.41h-20.74l-42.86,45.85-32.82-45.85h-56.72l57.42,80.21-57.42,61.42h20.74l45.68-48.86,34.98,48.86h56.72l-59.57-83.21ZM91.9,85.94h19.78l79.88,111.58h-19.78l-79.88-111.58Z"/>
</svg>